<mxfile host="app.diagrams.net" modified="2021-03-25T09:41:08.168Z" agent="5.0 (Macintosh; Intel Mac OS X 10_15_6) AppleWebKit/605.1.15 (KHTML, like Gecko) Version/14.0.3 Safari/605.1.15" etag="0r9nIJImF0-cJzV0y-ps" version="14.5.1" type="github">
  <diagram id="c-nsZ3AwIYsNxCrqTKGJ" name="Page-1">
    <mxGraphModel dx="2066" dy="1185" grid="1" gridSize="10" guides="1" tooltips="1" connect="1" arrows="1" fold="1" page="1" pageScale="1" pageWidth="1169" pageHeight="1654" math="0" shadow="0">
      <root>
        <mxCell id="0" />
        <mxCell id="1" parent="0" />
        <mxCell id="fEtXyK6lq5C5oS84i6Sd-7" style="edgeStyle=orthogonalEdgeStyle;rounded=0;orthogonalLoop=1;jettySize=auto;html=1;exitX=1;exitY=0.5;exitDx=0;exitDy=0;entryX=0;entryY=0.5;entryDx=0;entryDy=0;" edge="1" parent="1" source="fEtXyK6lq5C5oS84i6Sd-1" target="fEtXyK6lq5C5oS84i6Sd-4">
          <mxGeometry relative="1" as="geometry" />
        </mxCell>
        <mxCell id="fEtXyK6lq5C5oS84i6Sd-1" value="metoda" style="rounded=0;whiteSpace=wrap;html=1;" vertex="1" parent="1">
          <mxGeometry x="200" y="200" width="120" height="40" as="geometry" />
        </mxCell>
        <mxCell id="fEtXyK6lq5C5oS84i6Sd-8" style="edgeStyle=orthogonalEdgeStyle;rounded=0;orthogonalLoop=1;jettySize=auto;html=1;exitX=1;exitY=0.5;exitDx=0;exitDy=0;entryX=0;entryY=0.5;entryDx=0;entryDy=0;" edge="1" parent="1" source="fEtXyK6lq5C5oS84i6Sd-2" target="fEtXyK6lq5C5oS84i6Sd-5">
          <mxGeometry relative="1" as="geometry" />
        </mxCell>
        <mxCell id="fEtXyK6lq5C5oS84i6Sd-2" value="hlavička" style="rounded=0;whiteSpace=wrap;html=1;" vertex="1" parent="1">
          <mxGeometry x="200" y="240" width="120" height="40" as="geometry" />
        </mxCell>
        <mxCell id="fEtXyK6lq5C5oS84i6Sd-9" style="edgeStyle=orthogonalEdgeStyle;rounded=0;orthogonalLoop=1;jettySize=auto;html=1;exitX=1;exitY=0.5;exitDx=0;exitDy=0;entryX=0;entryY=0.5;entryDx=0;entryDy=0;" edge="1" parent="1" source="fEtXyK6lq5C5oS84i6Sd-3" target="fEtXyK6lq5C5oS84i6Sd-6">
          <mxGeometry relative="1" as="geometry" />
        </mxCell>
        <mxCell id="fEtXyK6lq5C5oS84i6Sd-3" value="tělo" style="rounded=0;whiteSpace=wrap;html=1;" vertex="1" parent="1">
          <mxGeometry x="200" y="280" width="120" height="40" as="geometry" />
        </mxCell>
        <mxCell id="fEtXyK6lq5C5oS84i6Sd-4" value="POST /api/plcs HTTP/1.1" style="text;html=1;strokeColor=none;fillColor=none;align=left;verticalAlign=middle;whiteSpace=wrap;rounded=0;" vertex="1" parent="1">
          <mxGeometry x="400" y="160" width="160" height="40" as="geometry" />
        </mxCell>
        <mxCell id="fEtXyK6lq5C5oS84i6Sd-5" value="Host: localhost:8080&lt;br&gt;Content-Type: application/json" style="text;html=1;strokeColor=none;fillColor=none;align=left;verticalAlign=middle;whiteSpace=wrap;rounded=0;" vertex="1" parent="1">
          <mxGeometry x="400" y="240" width="200" height="40" as="geometry" />
        </mxCell>
        <mxCell id="fEtXyK6lq5C5oS84i6Sd-6" value="{&lt;br&gt;&amp;nbsp; &amp;nbsp; &amp;nbsp; &amp;nbsp; &quot;name&quot;:&quot;plcName&quot;,&lt;br&gt;&amp;nbsp; &amp;nbsp; &amp;nbsp; &amp;nbsp; &quot;ipAddress&quot;:&quot;192.168.0.1&quot;&lt;br&gt;}" style="text;html=1;strokeColor=none;fillColor=none;align=left;verticalAlign=middle;whiteSpace=wrap;rounded=0;" vertex="1" parent="1">
          <mxGeometry x="400" y="320" width="200" height="40" as="geometry" />
        </mxCell>
      </root>
    </mxGraphModel>
  </diagram>
</mxfile>
